<svg width="54" height="54" viewBox="0 0 54 54" fill="none" xmlns="http://www.w3.org/2000/svg">
<path fill-rule="evenodd" clip-rule="evenodd" d="M16.5 33C16.5 32.5858 16.7765 32.25 17.1176 32.25H36.8824C37.2235 32.25 37.5 32.5858 37.5 33C37.5 33.4142 37.2235 33.75 36.8824 33.75H17.1176C16.7765 33.75 16.5 33.4142 16.5 33Z" fill="white"/>
<path fill-rule="evenodd" clip-rule="evenodd" d="M16.5 27C16.5 26.5858 16.7765 26.25 17.1176 26.25H36.8824C37.2235 26.25 37.5 26.5858 37.5 27C37.5 27.4142 37.2235 27.75 36.8824 27.75H17.1176C16.7765 27.75 16.5 27.4142 16.5 27Z" fill="white"/>
<path fill-rule="evenodd" clip-rule="evenodd" d="M16.5 21C16.5 20.5858 16.7765 20.25 17.1176 20.25H36.8824C37.2235 20.25 37.5 20.5858 37.5 21C37.5 21.4142 37.2235 21.75 36.8824 21.75H17.1176C16.7765 21.75 16.5 21.4142 16.5 21Z" fill="white"/>
</svg>
