<svg width="24" height="24" viewBox="0 0 24 24" fill="none" xmlns="http://www.w3.org/2000/svg">
<path fill-rule="evenodd" clip-rule="evenodd" d="M4.27105 19.2803C3.97816 18.9874 3.93626 18.5545 4.17747 18.3133L18.1532 4.3375C18.3944 4.09629 18.8274 4.13819 19.1203 4.43109C19.4132 4.72398 19.4551 5.15695 19.2139 5.39816L5.23813 19.3739C4.99692 19.6151 4.56395 19.5732 4.27105 19.2803Z" fill="white"/>
<path fill-rule="evenodd" clip-rule="evenodd" d="M19.2711 18.9697C18.9782 19.2626 18.5452 19.3045 18.304 19.0633L4.32822 5.0875C4.08702 4.84629 4.12892 4.41332 4.42181 4.12043C4.7147 3.82753 5.14768 3.78563 5.38888 4.02684L19.3646 18.0026C19.6058 18.2438 19.5639 18.6768 19.2711 18.9697Z" fill="white"/>
</svg>
