<svg width="89" height="38" viewBox="0 0 89 38" fill="none" xmlns="http://www.w3.org/2000/svg">
<g filter="url(#filter0_d_1_1135)">
<path d="M16.4773 15.7438C16.2134 15.1809 15.3694 15.1713 15.1044 15.7337C14.6791 16.6365 14.0834 17.8407 13.3867 19.0824C13.2521 19.3224 13.2666 19.6183 13.4219 19.8454C13.7988 20.3962 14.5247 21.5072 15.1761 22.7917C15.4666 23.3647 16.3784 23.36 16.6415 22.7739C17.0561 21.8503 17.6112 20.7265 18.1956 19.8672C18.359 19.6269 18.3779 19.3132 18.2305 19.0627C17.8667 18.4444 17.1575 17.1949 16.4773 15.7438Z" fill="url(#paint0_linear_1_1135)"/>
</g>
<g filter="url(#filter1_d_1_1135)">
<path d="M24.7442 31.7934C24.259 31.8404 23.9714 32.3589 24.1883 32.7954L24.388 33.1973C24.6323 33.689 25.1341 33.9999 25.6832 33.9999H36.0776C36.5713 33.9999 37.031 33.748 37.2967 33.3318L38.0492 32.1527C34.009 30.6335 29.7907 21.3726 29.669 21.104C29.6651 21.0955 29.6642 21.0939 29.6601 21.0855L21.4105 4.56608C21.1541 4.05259 20.4212 4.05296 20.1653 4.5667L18.4695 7.97095C17.9386 9.03677 17.9497 10.2897 18.4956 11.3479C20.5481 15.3267 24.5381 23.1601 26.171 26.4291C28.2669 30.6262 25.8576 31.5599 24.7868 31.7892L24.7442 31.7934Z" fill="url(#paint1_linear_1_1135)"/>
</g>
<g filter="url(#filter2_d_1_1135)">
<path d="M12.0206 25.9566C11.7475 25.4087 10.9103 25.4068 10.6251 25.9485C9.63121 27.8363 7.63891 31.0105 5 32.1527L5.78596 33.9999H15.378C15.9904 33.9999 16.5364 33.6142 16.7411 33.037L17.0546 32.1527C16.3499 31.8458 14.3394 30.6088 12.0206 25.9566Z" fill="url(#paint2_linear_1_1135)"/>
</g>
<path d="M62.3224 24.6284V24.9505L62.5491 31.7302C62.7505 31.8797 62.9369 31.9544 63.1081 31.9544C63.2794 31.9544 63.3751 31.8003 63.3952 31.4921C63.3952 31.3987 63.3902 31.1793 63.3801 30.8338C63.3801 30.4789 63.3751 30.0633 63.365 29.5871C63.365 29.1108 63.36 28.6019 63.3499 28.0602C63.3398 27.5186 63.3298 27.0097 63.3197 26.5334C63.3096 26.0571 63.2995 25.6462 63.2895 25.3007C63.2794 24.9459 63.2743 24.7217 63.2743 24.6284L63.2895 24.3295L63.2743 24.0774V23.6618C63.2441 23.4097 63.224 23.1342 63.2139 22.8354C63.2038 22.5272 63.1988 22.2144 63.1988 21.8969C63.2089 21.57 63.2189 21.2478 63.229 20.9303C63.2391 20.6035 63.2542 20.2953 63.2743 20.0058C63.2441 19.9124 63.1837 19.8377 63.093 19.7817C63.0024 19.7163 62.9016 19.6836 62.7908 19.6836C62.6901 19.6743 62.5894 19.6976 62.4886 19.7537C62.3879 19.8097 62.3224 19.8984 62.2922 20.0198L62.3224 23.984V24.4322V24.6284Z" fill="white"/>
<path d="M56.3692 30.8197C56.0972 30.8104 55.8655 30.7357 55.6741 30.5956C55.3921 30.6983 55.2561 30.8431 55.2661 31.0299C55.2762 31.2073 55.3971 31.3894 55.6288 31.5762C55.8403 31.6322 56.1173 31.6369 56.4598 31.5902C56.8124 31.5435 57.1851 31.4548 57.5779 31.324C57.9809 31.1933 58.3838 31.0299 58.7867 30.8338C59.1897 30.6283 59.5523 30.4042 59.8746 30.1614C60.2071 29.9092 60.479 29.6431 60.6906 29.3629C60.9021 29.0735 61.0129 28.7746 61.023 28.4665C61.0028 27.9809 60.8971 27.6493 60.7057 27.4719C60.5143 27.2851 60.2725 27.1824 59.9804 27.1637C59.6883 27.1357 59.3609 27.1591 58.9983 27.2338C58.6356 27.2991 58.278 27.3458 57.9255 27.3739C57.583 27.4019 57.2556 27.3739 56.9433 27.2898C56.6411 27.1964 56.3943 26.9816 56.203 26.6455C56.1123 26.356 56.1324 26.0338 56.2634 25.6789C56.3943 25.3241 56.616 25.0066 56.9282 24.7264C57.2405 24.4369 57.6334 24.2128 58.1068 24.054C58.5802 23.8953 59.1141 23.8719 59.7084 23.984C59.8797 24.0027 60.0157 23.97 60.1164 23.8859C60.2171 23.8019 60.2725 23.6898 60.2826 23.5498C60.2927 23.4377 60.2776 23.3537 60.2373 23.2976C60.2071 23.2416 60.1567 23.1996 60.0862 23.1716C60.0157 23.1435 59.9351 23.1295 59.8444 23.1295C59.7638 23.1202 59.6732 23.1109 59.5724 23.1015C59.0688 23.0735 58.5702 23.1389 58.0766 23.2976C57.5931 23.4564 57.1498 23.6852 56.7469 23.984C56.3541 24.2828 56.0267 24.647 55.7648 25.0766C55.5129 25.4968 55.3719 25.9497 55.3417 26.4353C55.3215 26.9396 55.4374 27.3132 55.6892 27.556C55.9411 27.7988 56.2684 27.9528 56.6714 28.0182C57.0844 28.0836 57.5477 28.0836 58.0615 28.0182C58.5752 27.9528 59.0889 27.8641 59.6027 27.7521C59.8847 27.8454 60.066 27.9715 60.1466 28.1303C60.2272 28.289 60.2322 28.4665 60.1617 28.6626C60.0912 28.8493 59.9552 29.0501 59.7538 29.2649C59.5624 29.4703 59.3307 29.6664 59.0587 29.8532C58.7968 30.04 58.5047 30.2127 58.1823 30.3715C57.8701 30.5209 57.5578 30.6376 57.2455 30.7217C56.9433 30.7964 56.6512 30.8291 56.3692 30.8197Z" fill="white"/>
<path fill-rule="evenodd" clip-rule="evenodd" d="M70.0889 31.4641C69.9479 31.268 69.8572 31.0112 69.8169 30.6937C69.7867 30.3762 69.7665 30.0447 69.7565 29.6991V28.6626C69.7665 28.317 69.7413 28.0229 69.6809 27.7801C69.2075 28.7419 68.7592 29.4937 68.3361 30.0353C67.9231 30.5676 67.5404 30.9505 67.1878 31.1839C66.8453 31.4081 66.533 31.5108 66.251 31.4921C65.9689 31.4641 65.7272 31.3707 65.5257 31.212C65.3343 31.0439 65.1832 30.8431 65.0724 30.6096C64.9616 30.3668 64.9012 30.138 64.8911 29.9233C64.8206 29.5684 64.8155 29.1435 64.876 28.6486C64.9465 28.1443 65.0623 27.626 65.2235 27.0937C65.3948 26.5614 65.6063 26.0431 65.8581 25.5389C66.12 25.0252 66.4122 24.5817 66.7345 24.2081C67.0669 23.8346 67.4195 23.5591 67.7922 23.3817C68.1649 23.1949 68.5527 23.1622 68.9556 23.2836C69.1571 23.2649 69.3233 23.2743 69.4543 23.3116C69.5953 23.3396 69.7111 23.405 69.8018 23.5077C69.8924 23.6105 69.9579 23.7552 69.9982 23.942C70.0385 24.1194 70.0687 24.3482 70.0889 24.6284C70.0687 25.5342 70.0939 26.3046 70.1644 26.9396C70.245 27.5746 70.3357 28.1349 70.4364 28.6205C70.5371 29.1061 70.6328 29.545 70.7235 29.9373C70.8242 30.3295 70.8847 30.7357 70.9048 31.1559C70.9048 31.3053 70.8645 31.4221 70.7839 31.5061C70.7033 31.5808 70.6127 31.6275 70.5119 31.6462C70.4112 31.6742 70.3155 31.6695 70.2249 31.6322C70.1443 31.5948 70.0989 31.5388 70.0889 31.4641ZM69.2125 24.3902C68.9707 24.0914 68.7088 23.9653 68.4268 24.012C68.1447 24.0587 67.8627 24.2221 67.5806 24.5023C67.3087 24.7731 67.0468 25.1326 66.7949 25.5809C66.5431 26.0198 66.3265 26.4914 66.1452 26.9957C65.9639 27.4999 65.8279 28.0042 65.7372 28.5085C65.6567 29.0034 65.6416 29.4423 65.6919 29.8252C65.8329 30.2454 66.0042 30.4976 66.2057 30.5816C66.4071 30.6657 66.6237 30.6376 66.8554 30.4976C67.0871 30.3482 67.3238 30.1147 67.5655 29.7972C67.8073 29.4797 68.039 29.1388 68.2606 28.7746C68.4822 28.4011 68.6786 28.0322 68.8499 27.668C69.0312 27.2945 69.1772 26.9816 69.2881 26.7295L69.2125 24.3902Z" fill="white"/>
<path d="M71.5999 28.0602C71.62 28.9567 71.6452 30.0493 71.6754 31.338C71.7157 31.4408 71.7862 31.5201 71.8869 31.5762C71.9977 31.6229 72.1035 31.6415 72.2042 31.6322C72.3151 31.6322 72.4107 31.6088 72.4913 31.5622C72.582 31.5061 72.6324 31.4267 72.6424 31.324C72.6525 31.0159 72.6475 30.6563 72.6273 30.2454C72.6173 29.8345 72.6173 29.4003 72.6273 28.9427C72.6475 28.4851 72.6928 28.0275 72.7633 27.57C72.8439 27.103 72.99 26.6595 73.2015 26.2392C73.3425 25.9497 73.5339 25.6743 73.7757 25.4128C74.0275 25.1513 74.3146 24.9272 74.6369 24.7404C74.9693 24.5443 75.332 24.3996 75.7248 24.3062C76.1278 24.2035 76.5559 24.1661 77.0092 24.1941C77.0998 24.1568 77.1703 24.1007 77.2207 24.026C77.2811 23.942 77.3063 23.8579 77.2963 23.7739C77.2963 23.6805 77.261 23.5965 77.1905 23.5217C77.13 23.447 77.0344 23.3957 76.9034 23.3677C76.5105 23.3023 76.0824 23.307 75.6191 23.3817C75.1658 23.4564 74.7276 23.6198 74.3045 23.8719C73.8814 24.1147 73.4987 24.4509 73.1562 24.8805C72.8238 25.3101 72.582 25.847 72.4309 26.4914L72.3856 23.2696C72.3453 23.1856 72.2798 23.1249 72.1891 23.0875C72.0985 23.0502 72.0028 23.0408 71.9021 23.0595C71.8114 23.0688 71.7258 23.1015 71.6452 23.1575C71.5646 23.2136 71.5193 23.2836 71.5092 23.3677V23.7179C71.5193 23.8766 71.5243 24.1241 71.5243 24.4603C71.5344 24.7871 71.5445 25.2447 71.5545 25.833C71.5646 26.4213 71.5797 27.1637 71.5999 28.0602Z" fill="white"/>
<defs>
<filter id="filter0_d_1_1135" x="0.771514" y="3.25719" width="30.0822" height="32.9475" filterUnits="userSpaceOnUse" color-interpolation-filters="sRGB">
<feFlood flood-opacity="0" result="BackgroundImageFix"/>
<feColorMatrix in="SourceAlpha" type="matrix" values="0 0 0 0 0 0 0 0 0 0 0 0 0 0 0 0 0 0 127 0" result="hardAlpha"/>
<feOffset dy="0.463825"/>
<feGaussianBlur stdDeviation="6.26164"/>
<feComposite in2="hardAlpha" operator="out"/>
<feColorMatrix type="matrix" values="0 0 0 0 0 0 0 0 0 1 0 0 0 0 0.64 0 0 0 0.7 0"/>
<feBlend mode="normal" in2="BackgroundImageFix" result="effect1_dropShadow_1_1135"/>
<feBlend mode="normal" in="SourceGraphic" in2="effect1_dropShadow_1_1135" result="shape"/>
</filter>
<filter id="filter1_d_1_1135" x="13.9042" y="0.702462" width="26.4641" height="36.3124" filterUnits="userSpaceOnUse" color-interpolation-filters="sRGB">
<feFlood flood-opacity="0" result="BackgroundImageFix"/>
<feColorMatrix in="SourceAlpha" type="matrix" values="0 0 0 0 0 0 0 0 0 0 0 0 0 0 0 0 0 0 127 0" result="hardAlpha"/>
<feOffset dx="-0.927651" dy="-0.231913"/>
<feGaussianBlur stdDeviation="1.62339"/>
<feComposite in2="hardAlpha" operator="out"/>
<feColorMatrix type="matrix" values="0 0 0 0 0.368627 0 0 0 0 0.266667 0 0 0 0 0.988235 0 0 0 0.4 0"/>
<feBlend mode="normal" in2="BackgroundImageFix" result="effect1_dropShadow_1_1135"/>
<feBlend mode="normal" in="SourceGraphic" in2="effect1_dropShadow_1_1135" result="shape"/>
</filter>
<filter id="filter2_d_1_1135" x="0.825571" y="22.0653" width="18.5482" height="14.9496" filterUnits="userSpaceOnUse" color-interpolation-filters="sRGB">
<feFlood flood-opacity="0" result="BackgroundImageFix"/>
<feColorMatrix in="SourceAlpha" type="matrix" values="0 0 0 0 0 0 0 0 0 0 0 0 0 0 0 0 0 0 127 0" result="hardAlpha"/>
<feOffset dx="-0.927651" dy="-0.231913"/>
<feGaussianBlur stdDeviation="1.62339"/>
<feComposite in2="hardAlpha" operator="out"/>
<feColorMatrix type="matrix" values="0 0 0 0 0.368627 0 0 0 0 0.266667 0 0 0 0 0.988235 0 0 0 0.4 0"/>
<feBlend mode="normal" in2="BackgroundImageFix" result="effect1_dropShadow_1_1135"/>
<feBlend mode="normal" in="SourceGraphic" in2="effect1_dropShadow_1_1135" result="shape"/>
</filter>
<linearGradient id="paint0_linear_1_1135" x1="15.8208" y1="14.1919" x2="15.8208" y2="24.483" gradientUnits="userSpaceOnUse">
<stop stop-color="#45DEFF"/>
<stop offset="1" stop-color="white"/>
</linearGradient>
<linearGradient id="paint1_linear_1_1135" x1="27.8197" y1="3.31845" x2="32.9745" y2="35.4009" gradientUnits="userSpaceOnUse">
<stop stop-color="#00FDFE"/>
<stop offset="1" stop-color="#0266EF"/>
</linearGradient>
<linearGradient id="paint2_linear_1_1135" x1="11.0173" y1="24.483" x2="11.8732" y2="34.6191" gradientUnits="userSpaceOnUse">
<stop stop-color="#00FDFE"/>
<stop offset="1" stop-color="#0266EF"/>
</linearGradient>
</defs>
</svg>
