<svg width="127" height="52" viewBox="0 0 127 52" fill="none" xmlns="http://www.w3.org/2000/svg">
<g filter="url(#filter0_d_0_860)">
<path d="M21.3507 20.5236C21.0969 19.9535 20.2562 19.9427 19.9975 20.5106C19.3607 21.9089 18.3256 24.0771 17.0763 26.3079C16.9429 26.546 16.958 26.84 17.1126 27.0649C17.6742 27.8826 19.0493 29.9689 20.1468 32.3188C20.4196 32.9029 21.3198 32.9013 21.5719 32.308C22.2146 30.7949 23.2276 28.6088 24.294 27.0837C24.4592 26.8474 24.4776 26.5376 24.3313 26.2892C23.8021 25.3908 22.5053 23.1174 21.3507 20.5236Z" fill="url(#paint0_linear_0_860)"/>
</g>
<g filter="url(#filter1_d_0_860)">
<path d="M33.2161 44.8088C32.7324 44.8562 32.4451 45.3723 32.6597 45.8084L33.3407 47.1923C33.584 47.6868 34.0872 48 34.6383 48H50.4909C50.987 48 51.4485 47.7458 51.7135 47.3264L53 45.2908C47.1044 43.052 40.9475 29.3511 40.8267 29.0812C40.823 29.0728 40.8229 29.073 40.8188 29.0648L28.5537 4.26269C28.2981 3.74596 27.5611 3.74632 27.3061 4.2633L24.1657 10.6294C23.6435 11.688 23.6532 12.9257 24.1913 13.9763C27.017 19.493 33.2629 31.8713 35.7485 36.8962C38.7925 43.0519 35.2933 44.4213 33.7381 44.7576L33.2161 44.8088Z" fill="url(#paint1_linear_0_860)"/>
</g>
<g filter="url(#filter2_d_0_860)">
<path d="M14.8741 35.5372C14.6104 34.9821 13.7778 34.98 13.5053 35.5309C12.2101 38.1495 9.1576 43.4736 5.00006 45.2908L6.14158 48H20.5317C21.1458 48 21.6929 47.6122 21.8963 47.0329L22.508 45.2908C21.452 44.8264 18.3768 42.9097 14.8741 35.5372Z" fill="url(#paint2_linear_0_860)"/>
</g>
<path d="M88.2492 34.2552V34.7277L88.5783 44.6713C88.8709 44.8904 89.1416 45 89.3903 45C89.639 45 89.778 44.774 89.8073 44.322C89.8073 44.1851 89.8 43.8632 89.7853 43.3564C89.7853 42.836 89.778 42.2265 89.7634 41.528C89.7634 40.8294 89.7561 40.083 89.7414 39.2886C89.7268 38.4942 89.7122 37.7478 89.6975 37.0492C89.6829 36.3507 89.6683 35.7481 89.6537 35.2413C89.639 34.7209 89.6317 34.3921 89.6317 34.2552L89.6537 33.8169L89.6317 33.4471V32.8376C89.5878 32.4678 89.5586 32.0638 89.5439 31.6255C89.5293 31.1735 89.522 30.7147 89.522 30.249C89.5366 29.7696 89.5512 29.2971 89.5659 28.8314C89.5805 28.352 89.6025 27.9 89.6317 27.4755C89.5878 27.3385 89.5 27.2289 89.3684 27.1467C89.2367 27.0509 89.0904 27.0029 88.9295 27.0029C88.7832 26.9892 88.6369 27.0235 88.4906 27.1057C88.3443 27.1878 88.2492 27.318 88.2053 27.496L88.2492 33.3101V33.9675V34.2552Z" fill="white"/>
<path d="M79.6028 43.3359C79.2077 43.3222 78.8712 43.2126 78.5933 43.0072C78.1836 43.1578 77.9861 43.3701 78.0008 43.6441C78.0154 43.9043 78.1909 44.1714 78.5274 44.4453C78.8347 44.5275 79.237 44.5343 79.7344 44.4658C80.2465 44.3974 80.7878 44.2672 81.3584 44.0755C81.9436 43.8837 82.5288 43.6441 83.114 43.3564C83.6992 43.0551 84.2259 42.7264 84.694 42.3703C85.1768 42.0005 85.5719 41.6101 85.8791 41.1992C86.1863 40.7747 86.3472 40.3364 86.3619 39.8844C86.3326 39.1722 86.179 38.686 85.901 38.4257C85.6231 38.1518 85.2719 38.0011 84.8477 37.9737C84.4234 37.9327 83.9479 37.9669 83.4212 38.0765C82.8945 38.1723 82.3752 38.2408 81.8631 38.2819C81.3657 38.323 80.8902 38.2819 80.4367 38.1587C79.9978 38.0217 79.6393 37.7067 79.3614 37.2136C79.2297 36.789 79.2589 36.3165 79.4491 35.796C79.6393 35.2756 79.9612 34.8099 80.4147 34.399C80.8683 33.9744 81.4388 33.6457 82.1265 33.4128C82.8141 33.18 83.5895 33.1458 84.4526 33.3101C84.7014 33.3375 84.8989 33.2896 85.0452 33.1663C85.1915 33.043 85.2719 32.8787 85.2866 32.6732C85.3012 32.5089 85.2792 32.3856 85.2207 32.3034C85.1768 32.2213 85.1037 32.1596 85.0013 32.1185C84.8989 32.0775 84.7818 32.0569 84.6502 32.0569C84.5331 32.0432 84.4014 32.0295 84.2551 32.0158C83.5236 31.9747 82.7994 32.0706 82.0826 32.3034C81.3803 32.5363 80.7366 32.8718 80.1514 33.3101C79.5808 33.7484 79.1053 34.2826 78.7249 34.9126C78.3592 35.5289 78.1544 36.1932 78.1105 36.9054C78.0812 37.645 78.2495 38.1929 78.6152 38.549C78.981 38.9051 79.4565 39.1311 80.0417 39.227C80.6415 39.3228 81.3145 39.3228 82.0606 39.227C82.8068 39.1311 83.5529 39.001 84.299 38.8366C84.7087 38.9736 84.972 39.1585 85.0891 39.3913C85.2061 39.6242 85.2134 39.8844 85.111 40.172C85.0086 40.4459 84.8111 40.7404 84.5185 41.0554C84.2405 41.3568 83.904 41.6444 83.509 41.9183C83.1286 42.1922 82.7043 42.4456 82.2362 42.6785C81.7826 42.8976 81.3291 43.0688 80.8756 43.1921C80.4367 43.3016 80.0124 43.3496 79.6028 43.3359Z" fill="white"/>
<path fill-rule="evenodd" clip-rule="evenodd" d="M99.529 44.2809C99.3242 43.9933 99.1925 43.6167 99.134 43.151C99.0901 42.6853 99.0608 42.1991 99.0462 41.6923V40.172C99.0608 39.6653 99.0243 39.2338 98.9365 38.8777C98.2489 40.2884 97.5978 41.391 96.9834 42.1854C96.3835 42.9661 95.8276 43.5276 95.3155 43.87C94.8181 44.1988 94.3646 44.3494 93.9549 44.322C93.5453 44.2809 93.1942 44.144 92.9016 43.9111C92.6236 43.6646 92.4041 43.3701 92.2432 43.0277C92.0823 42.6716 91.9945 42.3361 91.9799 42.021C91.8774 41.5006 91.8701 40.8774 91.9579 40.1515C92.0603 39.4119 92.2286 38.6517 92.4626 37.871C92.7114 37.0903 93.0186 36.3302 93.3843 35.5906C93.7647 34.8373 94.189 34.1867 94.6572 33.6388C95.14 33.091 95.652 32.6869 96.1933 32.4267C96.7346 32.1528 97.2979 32.1048 97.8831 32.2829C98.1757 32.2555 98.4171 32.2692 98.6073 32.324C98.8121 32.3651 98.9804 32.4609 99.112 32.6116C99.2437 32.7623 99.3388 32.9746 99.3973 33.2485C99.4559 33.5087 99.4997 33.8443 99.529 34.2552C99.4997 35.5837 99.5363 36.7137 99.6387 37.645C99.7558 38.5764 99.8874 39.3982 100.034 40.1104C100.18 40.8226 100.319 41.4663 100.451 42.0416C100.597 42.6168 100.685 43.2126 100.714 43.829C100.714 44.0481 100.656 44.2193 100.538 44.3426C100.421 44.4521 100.29 44.5206 100.143 44.548C99.9972 44.5891 99.8582 44.5823 99.7265 44.5275C99.6095 44.4727 99.5436 44.3905 99.529 44.2809ZM98.2562 33.9059C97.9051 33.4676 97.5247 33.2827 97.115 33.3512C96.7054 33.4197 96.2957 33.6594 95.8861 34.0703C95.4911 34.4675 95.1107 34.9948 94.7449 35.6522C94.3792 36.2959 94.0646 36.9876 93.8013 37.7272C93.538 38.4668 93.3405 39.2064 93.2088 39.946C93.0917 40.6719 93.0698 41.3157 93.1429 41.8772C93.3478 42.4936 93.5965 42.8634 93.8891 42.9866C94.1817 43.1099 94.4962 43.0688 94.8327 42.8634C95.1692 42.6442 95.513 42.3018 95.8642 41.8361C96.2153 41.3705 96.5518 40.8705 96.8736 40.3364C97.1955 39.7885 97.4808 39.2475 97.7295 38.7134C97.9928 38.1655 98.205 37.7067 98.3659 37.3369L98.2562 33.9059Z" fill="white"/>
<path d="M101.724 39.2886C101.753 40.6035 101.789 42.2059 101.833 44.096C101.892 44.2467 101.994 44.3631 102.14 44.4453C102.301 44.5138 102.455 44.5412 102.601 44.5275C102.762 44.5275 102.901 44.4932 103.018 44.4248C103.15 44.3426 103.223 44.2262 103.238 44.0755C103.252 43.6235 103.245 43.0962 103.216 42.4936C103.201 41.8909 103.201 41.254 103.216 40.5829C103.245 39.9118 103.311 39.2407 103.413 38.5695C103.53 37.8847 103.742 37.2341 104.05 36.6178C104.255 36.1932 104.533 35.7892 104.884 35.4057C105.249 35.0222 105.666 34.6935 106.135 34.4195C106.617 34.1319 107.144 33.9196 107.715 33.7827C108.3 33.632 108.922 33.5772 109.58 33.6183C109.712 33.5635 109.814 33.4813 109.887 33.3718C109.975 33.2485 110.011 33.1252 109.997 33.002C109.997 32.865 109.946 32.7417 109.843 32.6322C109.755 32.5226 109.616 32.4473 109.426 32.4062C108.856 32.3103 108.234 32.3171 107.561 32.4267C106.903 32.5363 106.266 32.776 105.652 33.1458C105.037 33.5019 104.481 33.9949 103.984 34.625C103.501 35.255 103.15 36.0426 102.931 36.9876L102.865 32.2624C102.806 32.1391 102.711 32.0501 102.579 31.9953C102.448 31.9405 102.309 31.9268 102.162 31.9542C102.031 31.9679 101.906 32.0158 101.789 32.098C101.672 32.1802 101.606 32.2829 101.592 32.4062V32.9198C101.606 33.1526 101.614 33.5156 101.614 34.0086C101.628 34.488 101.643 35.1591 101.658 36.022C101.672 36.8849 101.694 37.9737 101.724 39.2886Z" fill="white"/>
<defs>
<filter id="filter0_d_0_860" x="4.46231" y="8.03087" width="32.4913" height="37.7111" filterUnits="userSpaceOnUse" color-interpolation-filters="sRGB">
<feFlood flood-opacity="0" result="BackgroundImageFix"/>
<feColorMatrix in="SourceAlpha" type="matrix" values="0 0 0 0 0 0 0 0 0 0 0 0 0 0 0 0 0 0 127 0" result="hardAlpha"/>
<feOffset dy="0.463825"/>
<feGaussianBlur stdDeviation="6.26164"/>
<feComposite in2="hardAlpha" operator="out"/>
<feColorMatrix type="matrix" values="0 0 0 0 0 0 0 0 0 1 0 0 0 0 0.64 0 0 0 0.7 0"/>
<feBlend mode="normal" in2="BackgroundImageFix" result="effect1_dropShadow_0_860"/>
<feBlend mode="normal" in="SourceGraphic" in2="effect1_dropShadow_0_860" result="shape"/>
</filter>
<filter id="filter1_d_0_860" x="19.6063" y="0.396554" width="35.7129" height="50.6183" filterUnits="userSpaceOnUse" color-interpolation-filters="sRGB">
<feFlood flood-opacity="0" result="BackgroundImageFix"/>
<feColorMatrix in="SourceAlpha" type="matrix" values="0 0 0 0 0 0 0 0 0 0 0 0 0 0 0 0 0 0 127 0" result="hardAlpha"/>
<feOffset dx="-0.927651" dy="-0.231913"/>
<feGaussianBlur stdDeviation="1.62339"/>
<feComposite in2="hardAlpha" operator="out"/>
<feColorMatrix type="matrix" values="0 0 0 0 0.368627 0 0 0 0 0.266667 0 0 0 0 0.988235 0 0 0 0.4 0"/>
<feBlend mode="normal" in2="BackgroundImageFix" result="effect1_dropShadow_0_860"/>
<feBlend mode="normal" in="SourceGraphic" in2="effect1_dropShadow_0_860" result="shape"/>
</filter>
<filter id="filter2_d_0_860" x="0.825633" y="31.6407" width="24.0015" height="19.3742" filterUnits="userSpaceOnUse" color-interpolation-filters="sRGB">
<feFlood flood-opacity="0" result="BackgroundImageFix"/>
<feColorMatrix in="SourceAlpha" type="matrix" values="0 0 0 0 0 0 0 0 0 0 0 0 0 0 0 0 0 0 127 0" result="hardAlpha"/>
<feOffset dx="-0.927651" dy="-0.231913"/>
<feGaussianBlur stdDeviation="1.62339"/>
<feComposite in2="hardAlpha" operator="out"/>
<feColorMatrix type="matrix" values="0 0 0 0 0.368627 0 0 0 0 0.266667 0 0 0 0 0.988235 0 0 0 0.4 0"/>
<feBlend mode="normal" in2="BackgroundImageFix" result="effect1_dropShadow_0_860"/>
<feBlend mode="normal" in="SourceGraphic" in2="effect1_dropShadow_0_860" result="shape"/>
</filter>
<linearGradient id="paint0_linear_0_860" x1="20.7159" y1="18.948" x2="20.7159" y2="34.0417" gradientUnits="userSpaceOnUse">
<stop stop-color="#45DEFF"/>
<stop offset="1" stop-color="white"/>
</linearGradient>
<linearGradient id="paint1_linear_0_860" x1="38.1429" y1="3.00049" x2="45.7738" y2="50.0313" gradientUnits="userSpaceOnUse">
<stop stop-color="#00FDFE"/>
<stop offset="1" stop-color="#0266EF"/>
</linearGradient>
<linearGradient id="paint2_linear_0_860" x1="13.7395" y1="34.0419" x2="15.007" y2="48.906" gradientUnits="userSpaceOnUse">
<stop stop-color="#00FDFE"/>
<stop offset="1" stop-color="#0266EF"/>
</linearGradient>
</defs>
</svg>
