<svg width="132" height="102" viewBox="0 0 132 102" fill="none" xmlns="http://www.w3.org/2000/svg">
<mask id="mask0_2025_49" style="mask-type:alpha" maskUnits="userSpaceOnUse" x="0" y="0" width="64" height="64">
<ellipse cx="32" cy="32.0001" rx="31.2381" ry="31.2381" fill="white"/>
</mask>
<g mask="url(#mask0_2025_49)">
<path d="M5 0H-59V63.9998H5V0Z" fill="#C9D3D2"/>
<path d="M-17.5207 10.5183C-17.5207 10.5183 -21.2317 12.416 -18.9807 19.8908C-16.7297 27.3657 -17.9667 26.1374 -19.5434 27.5923C-21.1202 29.0472 -24.7569 30.8922 -23.8596 35.3571C-22.9624 39.8219 -20.3345 41.6827 -17.749 42.6579C-15.3281 43.5699 -15.6148 44.6663 -15.5033 45.6732C-15.3918 46.68 -17.0748 47.6816 -17.4145 47.7923C-17.7543 47.903 -19.6602 49.1312 -19.6602 50.9182C-19.6602 52.7052 -19.209 54.6029 -15.6148 53.8174C-12.0206 53.032 -10.3324 51.9197 -10.3324 49.8007C-10.3324 47.6816 -14.3778 47.5709 -14.3778 45.2251C-14.3778 42.8793 -13.8151 43.3274 -12.2436 43.5488C-10.6721 43.7702 -8.76092 42.6579 -8.87241 39.6427C-8.9839 36.6275 -8.42114 35.0671 -6.28693 35.958C-4.15273 36.8489 -8.55917 43.2852 -1.92827 43.0586C-1.92827 43.0586 4.49028 40.7866 3.97 30.1384C3.3754 17.9879 -3.02723 22.0099 -4.60399 13.7497C-6.18076 5.48943 -17.526 10.5131 -17.526 10.5131L-17.5207 10.5183Z" fill="url(#paint0_linear_2025_49)"/>
<path d="M2.54854 45.9996C2.54854 45.9996 1.95963 46.0304 2.0022 45.5307C2.04477 45.0311 2.49177 45.0004 2.49177 45.0004C2.49177 45.0004 2.93878 44.9696 2.99554 45.4693C3.0523 45.9689 2.54854 45.9996 2.54854 45.9996Z" fill="#A3B2C1"/>
<path d="M1.54707 28.9996C1.54707 28.9996 0.958297 29.0301 1.00235 28.5304C1.04641 28.0308 1.49099 28.0004 1.49099 28.0004C1.49099 28.0004 1.93958 27.9699 1.99565 28.4696C2.05172 28.9692 1.54707 28.9996 1.54707 28.9996Z" fill="#C9D3D2"/>
<path d="M69 0H5V64H69V0Z" fill="#C9D3D2"/>
<path fill-rule="evenodd" clip-rule="evenodd" d="M69 11.9145C68.7822 11.899 68.5446 11.9196 68.2872 11.9969V11.9917C67.9324 12.0945 67.5858 12.201 67.2487 12.3047C64.0021 13.3031 61.6249 14.0342 61.0554 8.50444C60.4268 2.40041 65.3519 0 65.3519 0H69V11.9145ZM64.5771 26.1288C66.5561 24.6411 68.0105 22.8153 69 21V38.3837C68.4902 38.8258 68.1454 39.2315 68.1454 39.2315C61.7634 46.0508 57.7002 31.3043 64.5771 26.1288Z" fill="url(#paint1_linear_2025_49)"/>
<path d="M9.13876 64C9.13876 64 2.21329 57.9499 8.93664 51.2942C15.66 44.6386 17.8993 41.2107 17.2876 37.5827C16.6759 33.9548 18.7131 27.4992 29.3088 29.3158C39.9044 31.1324 44.181 39.7995 45.4044 42.8272C46.6278 45.8549 49.8884 55.9332 57.8298 53.5163C65.7712 51.0994 69.6595 60.9565 64.9787 63.9789C64.9787 63.9789 27.0056 64 9.14408 64H9.13876Z" fill="url(#paint2_linear_2025_49)"/>
<path d="M5.00836 0C5.00836 0 6.57017 12.8026 14.0977 12.9978C21.6251 13.193 25.4872 0.210637 32 0.0154124C32 0.0154124 4.45057 0.00513748 5.00836 0.00513748V0Z" fill="url(#paint3_linear_2025_49)"/>
<path d="M39.8664 6.9792C39.8664 6.9792 44.99 7.29523 45 5.46334C45.01 3.63145 39.6721 4.03854 39.6721 4.03854C39.6721 4.03854 37.0505 3.9582 37.0006 5.22766C36.9508 6.49713 39.8615 6.9792 39.8615 6.9792H39.8664Z" fill="#A3B2C1"/>
<path d="M21.5824 59.9711C21.5824 59.9711 27.9842 60.3994 28 57.9563C28.0157 55.5132 21.3409 56.05 21.3409 56.05C21.3409 56.05 18.0638 55.9354 18.0008 57.6305C17.9378 59.3257 21.5772 59.9711 21.5772 59.9711H21.5824Z" fill="#C9D3D2"/>
<path d="M48.7391 39.9982C48.7391 39.9982 45.8005 40.1516 46.0108 37.6506C46.221 35.1496 48.4604 35.0018 48.4604 35.0018C48.4604 35.0018 50.6999 34.8484 50.9785 37.3494C51.2571 39.8504 48.7391 39.9982 48.7391 39.9982Z" fill="#A3B2C1"/>
<path d="M23.5471 48.9996C23.5471 48.9996 22.9583 49.0301 23.0024 48.5304C23.0464 48.0308 23.491 48.0004 23.491 48.0004C23.491 48.0004 23.9396 47.9699 23.9957 48.4696C24.0517 48.9692 23.5471 48.9996 23.5471 48.9996Z" fill="#C9D3D2"/>
<path d="M27.5485 5.99963C27.5485 5.99963 26.9596 6.03038 27.0022 5.53075C27.0448 5.03112 27.4918 5.00037 27.4918 5.00037C27.4918 5.00037 27.9388 4.96962 27.9955 5.46925C28.0523 5.96888 27.5485 5.99963 27.5485 5.99963Z" fill="#A3B2C1"/>
<path d="M54.5485 29.9996C54.5485 29.9996 53.9596 30.0304 54.0022 29.5307C54.0448 29.0311 54.4918 29.0004 54.4918 29.0004C54.4918 29.0004 54.9388 28.9696 54.9955 29.4693C55.0523 29.9689 54.5485 29.9996 54.5485 29.9996Z" fill="#A3B2C1"/>
<path d="M15.5459 52.9996C15.5459 52.9996 14.9588 53.031 15.0023 52.5294C15.0458 52.0278 15.4916 52.0004 15.4916 52.0004C15.4916 52.0004 15.9374 51.969 15.9954 52.4706C16.0533 52.9722 15.5496 52.9996 15.5496 52.9996H15.5459Z" fill="#C9D3D2"/>
<path d="M20.5485 24.9996C20.5485 24.9996 19.9596 25.0304 20.0022 24.5307C20.0448 24.0311 20.4918 24.0004 20.4918 24.0004C20.4918 24.0004 20.9388 23.9696 20.9955 24.4693C21.0523 24.9689 20.5485 24.9996 20.5485 24.9996Z" fill="#A3B2C1"/>
<path d="M60.5513 56.9996C60.5513 56.9996 59.962 57.032 60.0019 56.5297C60.0419 56.0274 60.4914 56.0004 60.4914 56.0004C60.4914 56.0004 60.9409 55.968 60.9958 56.4703C61.0508 56.9726 60.5463 56.9996 60.5463 56.9996H60.5513Z" fill="#C9D3D2"/>
<path d="M22.5513 4.99958C22.5513 4.99958 21.962 5.03198 22.0019 4.5297C22.0419 4.02743 22.4914 4.00042 22.4914 4.00042C22.4914 4.00042 22.9409 3.96802 22.9958 4.4703C23.0508 4.97257 22.5463 4.99958 22.5463 4.99958H22.5513Z" fill="#C9D3D2"/>
<path d="M62.5471 33.9996C62.5471 33.9996 61.9583 34.0301 62.0024 33.5304C62.0464 33.0308 62.491 33.0004 62.491 33.0004C62.491 33.0004 62.9396 32.9699 62.9957 33.4696C63.0517 33.9692 62.5471 33.9996 62.5471 33.9996Z" fill="#C9D3D2"/>
<path d="M28.9292 42.7807C28.9292 42.7807 25.1989 44.2055 23.4066 39.7915C21.6144 35.3776 26.3272 34.2266 26.3272 34.2266C26.3272 34.2266 28.5459 32.9583 31.0777 36.4224C33.6096 39.8809 30.268 42.5014 28.9346 42.7807H28.9292Z" fill="#C9D3D2"/>
<path d="M12.6589 6.06959C12.2972 5.99973 11.9192 5.97645 11.5521 6.02768C10.8556 6.12547 9.8297 6.44681 10.0241 7.50863C10.321 9.09669 12.8965 8.97095 12.8965 8.97095C12.8965 8.97095 14.5163 9.28763 14.959 7.82996C15.2884 6.73555 13.5498 6.24656 12.6589 6.06959Z" fill="#C9D3D2"/>
<path d="M42.0956 26.1749C42.0956 26.1749 41.4579 24.4276 43.4765 23.4039C45.4951 22.3802 49 23.3021 49 26.1749C49 29.0477 42.5226 28.1258 42.0956 26.1749Z" fill="#A3B2C1"/>
<path d="M10.125 24.7133C10.125 24.7133 9.15968 21 12.5944 21C16.0291 21 17 22.8094 17 24.7133C17 26.6172 13.6663 27 13.6663 27C13.6663 27 10.4449 26.9056 10.1194 24.7133H10.125Z" fill="url(#paint4_linear_2025_49)"/>
<path d="M35.4053 61.9763C35.4053 61.9763 34.051 62.2424 34.0004 61.0228C33.9499 59.8032 38.4525 60.0139 38.4525 60.0139C38.4525 60.0139 40.0494 60.0693 39.9988 61.1282C39.9483 62.187 35.4002 61.9763 35.4002 61.9763H35.4053Z" fill="#C9D3D2"/>
<path d="M36.2533 47.5001C36.2533 47.5001 35.5955 48.1349 36.4 49.3274C37.2046 50.5198 38.5151 49.7635 38.5151 49.7635C38.5151 49.7635 39.608 49.2446 38.5151 47.7374C37.4221 46.2303 36.2533 47.5001 36.2533 47.5001Z" fill="#C9D3D2"/>
<path d="M9.16816 28.3331C9.16816 28.3331 8.73211 28.7603 9.26435 29.5517C9.79659 30.343 10.6751 29.8458 10.6751 29.8458C10.6751 29.8458 11.4061 29.5026 10.6751 28.4942C9.94407 27.4857 9.16816 28.3331 9.16816 28.3331Z" fill="#A3B2C1"/>
<path d="M51.1712 47.2683C51.1712 47.2683 50.6053 46.5655 51.5313 46.1775C52.4574 45.7895 53.3377 46.0611 53.8065 46.7639C54.2752 47.4667 53.8579 47.8159 52.9261 47.9711C51.9944 48.1263 51.2226 47.6219 51.1712 47.2683Z" fill="#A3B2C1"/>
<path d="M37.1717 18.2685C37.1717 18.2685 36.6035 17.5658 37.5344 17.1779C38.4653 16.7901 39.3419 17.0593 39.8073 17.762C40.2728 18.4647 39.8617 18.8161 38.9308 18.9712C37.9999 19.1264 37.2261 18.6199 37.1778 18.2685H37.1717Z" fill="#A3B2C1"/>
<path d="M33.0533 36.336C33.0533 36.336 32.718 35.391 33.73 35.0642C34.7419 34.7373 34.9919 35.7654 34.9919 35.7654C34.9919 35.7654 35.1199 36.5856 34.3579 36.9184C33.5958 37.2512 33.0106 36.4667 33.0533 36.3419V36.336Z" fill="#C9D3D2"/>
<path d="M55.2401 13.1916C55.2401 13.1916 50.8907 11.8435 49.2683 16.2992C47.6459 20.7548 53.8238 22 55.9483 22C58.0728 22 60.0968 21.1717 59.9964 19.4067C59.896 17.6418 58.2736 13.603 55.2401 13.1862V13.1916Z" fill="#A3B2C1"/>
</g>
<g filter="url(#filter0_f_2025_49)">
<circle cx="82" cy="52" r="42" fill="#F5D428" fill-opacity="0.42"/>
</g>
<mask id="mask1_2025_49" style="mask-type:alpha" maskUnits="userSpaceOnUse" x="42" y="11" width="82" height="82">
<circle cx="83" cy="52" r="40.0238" fill="white"/>
</mask>
<g mask="url(#mask1_2025_49)">
<path d="M204.999 11H123V93H204.999V11Z" fill="#FDDB29"/>
<path d="M125.769 52.3103C125.769 52.3103 127.736 45.7796 133.809 47.2029C139.881 48.6263 139.197 57.8364 146.467 54.0686C153.737 50.3009 156.645 48.71 160.152 50.4683C163.659 52.2266 168.62 50.2171 167.936 57.334C167.251 64.4509 158.185 63.2787 158.185 63.2787C158.185 63.2787 149.546 61.6042 150.744 68.6373C151.941 75.6705 150.573 79.1033 145.783 79.522C140.993 79.9406 138.769 82.9548 132.782 78.9359C126.795 74.9169 120.979 67.9675 125.769 52.3103Z" fill="#FDB202"/>
<path d="M160.867 29.0203C155.577 26.0321 155.913 23.8123 157.844 21.6779C159.775 19.5435 155.661 15.6162 152.555 17.4945C149.532 19.2874 145.67 24.41 141.64 21.8487C137.609 19.2874 134.419 15.1893 127.786 21.251C125.939 22.9586 124.343 24.2269 123 25.2514V30.1707C124.511 28.6339 126.107 28.4227 127.114 30.5571C127.114 30.5571 129.633 38.7532 137.525 37.3018C145.418 35.9358 148.357 42.2537 148.357 42.2537C148.357 42.2537 149.868 48.9984 158.6 44.3881C167.332 39.7777 166.156 32.0085 160.867 29.0203Z" fill="#FDB202"/>
<path d="M122.999 11H41V93H122.999V11Z" fill="#FDDB29"/>
<path d="M123 25.4411C119.422 28.0372 117.292 28.4682 115.843 25.9558C113.884 22.5222 107.835 28.8869 109.198 36.3403C110.561 43.7937 118.996 38.2665 120.7 33.8279C121.296 32.3205 122.233 31.1039 123 30.2664V26.4061V25.4411Z" fill="#FDB202"/>
<path d="M53.9173 65.1766C53.9173 65.1766 50.2463 62.582 53.0636 58.5647C55.8809 54.4637 62.1984 50.8649 67.6622 53.6268C73.1261 56.3887 79.4436 59.4017 82.6878 54.8822C85.9319 50.3627 90.7128 44.1694 98.5671 46.5128C106.421 48.8562 108.129 55.8865 104.628 61.2429C101.128 66.5993 107.873 71.2862 107.873 71.2862C107.873 71.2862 112.483 75.3872 108.129 78.735C103.775 82.0827 94.6399 84.2588 86.5295 78.0654C78.4192 71.8721 71.504 66.0972 64.9303 66.3483C58.5274 66.683 55.7101 67.2689 53.9173 65.1766Z" fill="#FDB202"/>
<path d="M58.6263 23.9349C58.6263 23.9349 52.1066 23.2522 50.8365 26.5807C49.5664 29.8239 49.3124 32.8964 53.2073 36.1396C57.1022 39.3827 67.5167 42.0285 73.2744 37.8465C79.1167 33.6645 82.7575 33.4938 87.7531 34.1766C92.7487 34.8594 96.3896 34.6033 95.9662 31.7869C95.5429 28.9704 92.0714 27.8609 88.4305 28.1169C84.7897 28.373 78.524 30.9334 75.8992 28.9704C73.2744 27.0074 71.3269 20.009 65.9927 21.1185C60.5737 22.228 61.6744 23.2522 58.6263 23.9349Z" fill="#FDB202"/>
<path d="M120.44 84.0093C120.44 84.0093 114.523 83.7439 112.773 86.0446C111.023 88.3453 112.106 91 117.44 91C122.773 91 122.94 87.8144 120.44 84.0093Z" fill="#FDB202"/>
<path d="M51.812 75.0052C46.2763 77.6142 43.6814 70.2922 41 66V86.6195C42.7299 87.3769 44.5463 88.0502 46.7087 88.7235C57.5208 91.9216 60.1156 88.8918 62.5375 82.0748C64.9594 75.2577 57.3478 72.3121 51.812 75.0052Z" fill="#FDB202"/>
<path d="M49.007 29.4102C49.007 29.4102 49.007 28 50.0033 28C51.0707 28 50.9996 29.5865 50.9996 29.5865C50.9996 29.5865 50.9284 30.8204 49.861 30.9966C48.8647 31.0848 49.007 29.4102 49.007 29.4102Z" fill="white"/>
<path d="M80.2196 84.2668C80.2196 84.2668 82.7361 83.1582 83.7774 85.4606C84.8187 87.763 81.8684 88.8716 81.8684 88.8716C81.8684 88.8716 79.6122 89.639 78.3106 87.4219C77.0089 85.2048 80.2196 84.2668 80.2196 84.2668Z" fill="#D19300"/>
<path d="M96.0104 50.9601C96.0104 50.9601 96.0104 50 97.0052 50C98 50 98 51.0287 98 51.0287C98 51.0287 97.9171 51.8516 96.8394 51.9888C95.8446 52.1259 96.0104 50.9601 96.0104 50.9601Z" fill="white"/>
<path d="M104.565 22.935C104.565 22.935 102.263 23.4922 102.024 21.3432C101.786 19.1942 103.374 19.1146 103.374 19.1146C103.374 19.1146 104.803 18.3983 105.756 20.5473C106.709 22.6963 104.565 22.935 104.565 22.935Z" fill="white"/>
<path d="M96.9674 21.962C96.9674 21.962 95.2049 22.3328 95.0194 20.7572C94.8339 19.089 96.0398 19.089 96.0398 19.089C96.0398 19.089 97.1529 18.5329 97.8023 20.2011C98.5444 21.7767 96.9674 21.962 96.9674 21.962Z" fill="#D19300"/>
<path d="M70.1719 48.3833C70.1719 48.3833 69.2625 46.9575 71.6269 46.1321C73.9913 45.3066 74.9007 48.6084 72.9001 48.9085C70.9904 49.2837 70.1719 48.3833 70.1719 48.3833Z" fill="#D19300"/>
<path d="M61.1026 84.9629C61.1026 84.9629 59.9062 85.261 60.0059 83.8696C60.1056 82.4782 61.4018 83.1739 61.4018 83.1739C61.4018 83.1739 62 83.0745 62 84.1678C62 85.261 61.1026 84.9629 61.1026 84.9629Z" fill="white"/>
<path d="M116.531 47.9277C116.531 47.9277 115.946 48.0434 116.004 47.4068C116.063 46.7124 116.707 47.1175 116.707 47.1175C116.707 47.1175 117 47.0596 117 47.6383C117 48.217 116.531 47.9277 116.531 47.9277Z" fill="white"/>
<path d="M110.079 61.959C110.079 61.959 108.927 62.2693 109.004 60.8728C109.08 59.4763 110.386 60.1746 110.386 60.1746C110.386 60.1746 111 60.097 111 61.1831C111 62.2693 110.079 61.959 110.079 61.959Z" fill="#D19300"/>
<path d="M49.0786 48.959C49.0786 48.959 47.9269 49.2693 48.0037 47.8728C48.0805 46.4763 49.3857 47.1746 49.3857 47.1746C49.3857 47.1746 50 47.097 50 48.1831C50 49.2693 49.0786 48.959 49.0786 48.959Z" fill="#D19300"/>
<path d="M105.837 71.9625C105.837 71.9625 103.082 72.5838 103.001 68.7672C102.92 64.9506 107.134 66.1933 107.134 66.1933C107.134 66.1933 109.079 66.5483 108.998 69.2998C108.835 72.14 105.837 71.9625 105.837 71.9625Z" fill="white"/>
<path d="M69.2473 71.4865C69.2473 71.4865 67.7015 67.8251 72.3391 66.2925C76.9766 64.7598 81.3566 69.7835 83.933 69.1023C86.5953 68.4211 89 69.9538 89 72.3379C89 74.7221 82.3871 75.9993 79.1237 74.0409C75.8602 72.0825 71.652 74.4666 69.2473 71.4865Z" fill="#FF880A"/>
<path d="M82.6827 18.1586C82.6827 18.1586 74 16.9444 74 21.2347C74 25.5251 80.0438 25.6061 83.1083 24.149C86.1728 22.6918 88.9818 22.9347 88.9818 21.8823C88.9818 20.83 89.6628 18.3205 82.6827 18.1586Z" fill="#FF880A"/>
<path d="M54.7154 13.0049C54.7154 13.0049 49.6692 13.1677 50.0172 15.8541C50.3652 18.5405 54.1934 18.2963 56.5425 17.3194C58.8916 16.3425 60.1097 16.0169 62.1977 16.4239C64.2858 16.831 66.983 12.842 54.7154 13.0049Z" fill="#FF880A"/>
</g>
<defs>
<filter id="filter0_f_2025_49" x="32.5" y="2.5" width="99" height="99" filterUnits="userSpaceOnUse" color-interpolation-filters="sRGB">
<feFlood flood-opacity="0" result="BackgroundImageFix"/>
<feBlend mode="normal" in="SourceGraphic" in2="BackgroundImageFix" result="shape"/>
<feGaussianBlur stdDeviation="3.75" result="effect1_foregroundBlur_2025_49"/>
</filter>
<linearGradient id="paint0_linear_2025_49" x1="-11.8449" y1="74.6253" x2="-31.1127" y2="-44.0166" gradientUnits="userSpaceOnUse">
<stop stop-color="#A3B2C1"/>
<stop offset="1" stop-color="#A3B2C1" stop-opacity="0"/>
</linearGradient>
<linearGradient id="paint1_linear_2025_49" x1="65" y1="0" x2="65.5555" y2="85.1611" gradientUnits="userSpaceOnUse">
<stop stop-color="#A3B2C1"/>
<stop offset="1" stop-color="#A3B2C1" stop-opacity="0"/>
</linearGradient>
<linearGradient id="paint2_linear_2025_49" x1="29.6603" y1="70.4038" x2="29.6603" y2="-2.19717" gradientUnits="userSpaceOnUse">
<stop stop-color="#A3B2C1"/>
<stop offset="1" stop-color="#A3B2C1" stop-opacity="0"/>
</linearGradient>
<linearGradient id="paint3_linear_2025_49" x1="18.5" y1="4.05262e-09" x2="18.3691" y2="30.1482" gradientUnits="userSpaceOnUse">
<stop stop-color="#A3B2C1"/>
<stop offset="1" stop-color="#A3B2C1" stop-opacity="0"/>
</linearGradient>
<linearGradient id="paint4_linear_2025_49" x1="13.2832" y1="11.3829" x2="12.052" y2="40.1099" gradientUnits="userSpaceOnUse">
<stop stop-color="#A3B2C1"/>
<stop offset="1" stop-color="#A3B2C1" stop-opacity="0"/>
</linearGradient>
</defs>
</svg>
